# xmcd
# 
# Track frame offsets:
#     150
#     23645
#     40743
#     57645
#     75162
#     90939
#     108514
#     132468
#     163916
#     179952
#     200513
#     223427
#     234986
#     250657
#     275600
# 
# Disc length: 3933
# 
# Revision: 5
# Processed by: cddbd v1.5.2PL0 Copyright (c) Steve Scherf et al.
# Submitted via: fre:ac v1.0.31
# 
DISCID=d60f5b0f
DTITLE=Drake - Thank Me Later
DYEAR=2010
DGENRE=Hip-Hop/Rap
TTITLE0=Fireworks feat. Alicia Keys
TTITLE1=Karaoke
TTITLE2=The Resistance
TTITLE3=Over
TTITLE4=Show Me A Good Time
TTITLE5=Up All Night feat. Nicki Minaj
TTITLE6=Fancy feat. T. I. and Swizz Beatz
TTITLE7=Shut It Down feat. The Dream
TTITLE8=Unforgettable feat. Young Jeezy
TTITLE9=Light Up feat. Jay-Z
TTITLE10=Miss Me feat. Lil' Wayne
TTITLE11=Cece's Interlude
TTITLE12=Find Your Love
TTITLE13=Thank Me Now
TTITLE14=Best I Ever Had
EXTD=
EXTT0=
EXTT1=
EXTT2=
EXTT3=
EXTT4=
EXTT5=
EXTT6=
EXTT7=
EXTT8=
EXTT9=
EXTT10=
EXTT11=
EXTT12=
EXTT13=
EXTT14=
PLAYORDER=
